<svg id="Capa_1" enable-background="new 0 0 512.003 512.003" height="512" viewBox="0 0 512.003 512.003" width="512" xmlns="http://www.w3.org/2000/svg"><g><path d="m411.085 199.607c2.858 7.877 11.543 11.768 19.219 8.965l56.631-20.61c7.778-2.827 11.689-11.367 8.877-19.146-2.783-7.734-11.294-11.763-19.131-9.038h-.015c-.19.029-.264.088-.381.146l-56.235 20.464c-7.794 2.827-11.807 11.44-8.965 19.219z"/><path d="m430.464 90.154-46.187 38.76c-6.343 5.317-7.178 14.78-1.846 21.123 5.233 6.268 14.685 7.244 21.123 1.846l46.187-38.76c6.343-5.317 7.178-14.78 1.846-21.123-5.302-6.329-14.736-7.164-21.123-1.846z"/><path d="m383.721 35.031c-7.163-4.16-16.348-1.685-20.493 5.493l-30.146 52.222c-4.146 7.178-1.685 16.348 5.493 20.493 7.108 4.107 16.307 1.732 20.493-5.493l30.146-52.222c4.146-7.177 1.685-16.347-5.493-20.493z"/><path d="m302.144 81.482 10.474-60.37c1.45-8.159-3.999-15.937-12.158-17.373-8.232-1.553-15.952 3.999-17.373 12.158l-10.474 60.37c-1.45 8.159 3.999 15.938 12.158 17.373 8.022 1.47 15.932-3.922 17.373-12.158z"/><path d="m203.15 258.215c-15.674 9.639-37.148 22.822-37.148 57.788 0 8.291 6.709 15 15 15h60c8.291 0 15-6.709 15-15s-6.709-15-15-15h-42.026c3.486-6.841 10.063-11.191 19.878-17.212 15.674-9.639 37.148-22.822 37.148-57.788 0-24.814-20.186-45-45-45s-45 20.186-45 45c0 8.291 6.709 15 15 15s15-6.709 15-15c0-8.276 6.724-15 15-15s15 6.724 15 15c0 17.417-7.413 22.749-22.852 32.212z"/><path d="m258.829 294.778c2.827 3.911 7.354 6.226 12.173 6.226h45v15c0 8.291 6.709 15 15 15s15-6.709 15-15v-15h15c8.291 0 15-6.709 15-15s-6.709-15-15-15h-15v-45c0-8.291-6.709-15-15-15s-15 6.709-15 15v45h-24.185l23.408-70.254c2.622-7.866-1.626-16.362-9.478-18.97-7.896-2.651-16.348 1.626-18.97 9.478l-30 90c-1.537 4.569-.761 9.608 2.052 13.52z"/><path d="m497.002 241.003h-30c-8.284 0-15 6.714-15 15 0 107.52-88.48 196-196 196s-196-88.48-196-196c0-33.571 9.657-65.092 24.69-92.673l18.424 18.42c3.977 3.977 9.776 5.336 14.956 3.75 5.288-1.597 9.272-5.991 10.356-11.411l21.211-106.055c.981-4.922-.557-10.005-4.102-13.55s-8.643-5.01-13.55-4.102l-106.068 21.212c-5.42 1.084-9.814 5.068-11.411 10.356-1.597 5.303-.161 11.045 3.75 14.956l22.562 22.559c-25.177 39.445-40.818 86.245-40.818 136.538 0 140.832 115.168 256 256 256s256-115.168 256-256c0-8.287-6.715-15-15-15z"/><path d="m227.525 93.64c8.159-1.436 13.608-9.214 12.158-17.373l-11.074-63.871c-1.436-8.159-9.316-13.623-17.373-12.158-8.159 1.436-13.608 9.214-12.158 17.373l11.074 63.871c1.445 8.258 9.369 13.625 17.373 12.158z"/></g></svg>