<svg id="Capa_1" enable-background="new 0 0 512 512" height="512" viewBox="0 0 512 512" width="512" xmlns="http://www.w3.org/2000/svg"><g><path d="m217.199 418.741c-2.854.274-5.72.412-8.586.412-10.539 0-20.918-1.833-30.85-5.448-12.716-4.629-24.097-11.964-33.458-21.493-12.936-3.342-24.979-9.53-35.346-18.23-4.857-4.076-9.229-8.616-13.08-13.535l-35.663 83.136c-2.392 5.575-1.189 12.043 3.047 16.386 4.237 4.345 10.674 5.709 16.305 3.456l65.193-26.052 26.052 65.194c2.251 5.634 7.674 9.356 13.74 9.433.063.001.127.001.189.001 5.992 0 11.417-3.569 13.784-9.087l33.714-78.591c-5.162-1.408-10.195-3.269-15.041-5.582z"/><path d="m403.04 373.981c-10.367 8.699-22.41 14.888-35.346 18.229-9.36 9.529-20.74 16.864-33.454 21.493-9.938 3.616-20.316 5.448-30.854 5.448-.001 0-.001 0-.001 0-2.865 0-5.731-.138-8.585-.411-4.846 2.313-9.879 4.173-15.042 5.581l33.714 78.591c2.367 5.519 7.792 9.087 13.784 9.087.063 0 .126 0 .189-.001 6.066-.076 11.489-3.799 13.74-9.433l26.052-65.194 65.193 26.052c5.634 2.252 12.069.888 16.305-3.456 4.236-4.343 5.438-10.811 3.047-16.386l-35.663-83.136c-3.85 4.92-8.222 9.46-13.079 13.536z"/><path d="m256 290.646c52.325 0 94.896-42.57 94.896-94.896s-42.57-94.896-94.896-94.896-94.896 42.57-94.896 94.896 42.571 94.896 94.896 94.896zm-51.252-104.293c5.857-5.857 15.355-5.857 21.213 0l16.628 16.627 43.077-46.279c5.645-6.063 15.138-6.403 21.199-.76 6.064 5.645 6.404 15.136.76 21.199l-53.67 57.66c-2.773 2.98-6.64 4.705-10.711 4.778-.09.001-.18.002-.269.002-3.975 0-7.791-1.578-10.606-4.394l-27.621-27.621c-5.858-5.857-5.858-15.355 0-21.212z"/><path d="m451.731 164.237c-2.073-11.751-7.539-22.504-15.657-31.028.739-11.75-1.985-23.501-7.952-33.834-5.965-10.333-14.778-18.567-25.324-23.803-3.324-11.293-9.903-21.403-19.044-29.074-9.142-7.67-20.239-12.394-31.938-13.705-6.986-9.477-16.626-16.726-27.839-20.806-11.213-4.082-23.259-4.727-34.7-1.956-9.807-6.515-21.344-10.031-33.277-10.031-11.932 0-23.471 3.516-33.276 10.031-11.445-2.771-23.488-2.126-34.699 1.955-11.213 4.081-20.854 11.33-27.84 20.807-11.699 1.313-22.798 6.036-31.939 13.706-9.14 7.67-15.719 17.78-19.043 29.073-10.546 5.235-19.359 13.47-25.324 23.802-5.967 10.334-8.691 22.085-7.952 33.835-8.118 8.524-13.584 19.277-15.657 31.028-2.071 11.751-.612 23.725 4.101 34.513-4.713 10.788-6.172 22.763-4.1 34.514 2.072 11.75 7.538 22.503 15.656 31.028-.739 11.749 1.985 23.5 7.952 33.833 5.966 10.334 14.779 18.568 25.324 23.803 3.324 11.293 9.903 21.403 19.043 29.073 9.141 7.671 20.239 12.395 31.939 13.706 6.986 9.476 16.627 16.726 27.84 20.808 11.213 4.081 23.257 4.724 34.699 1.954 9.806 6.516 21.344 10.031 33.276 10.031s23.47-3.516 33.276-10.031c11.442 2.769 23.486 2.126 34.7-1.954 11.212-4.082 20.853-11.332 27.839-20.808 11.699-1.313 22.799-6.036 31.939-13.706s15.719-17.78 19.043-29.073c10.545-5.234 19.358-13.469 25.324-23.802 5.967-10.334 8.691-22.085 7.952-33.834 8.118-8.525 13.584-19.278 15.657-31.029 2.071-11.751.612-23.725-4.101-34.513 4.715-10.788 6.174-22.762 4.102-34.513zm-195.731-93.383c68.867 0 124.896 56.028 124.896 124.896s-56.029 124.896-124.896 124.896-124.896-56.029-124.896-124.896 56.029-124.896 124.896-124.896z"/></g></svg>